<svg version="1.0" xmlns="http://www.w3.org/2000/svg"
 width="5589.000000pt" height="5063.000000pt" viewBox="0 0 5589.000000 5063.000000"
 preserveAspectRatio="xMidYMid meet">

<g transform="translate(0.000000,5063.000000) scale(0.100000,-0.100000)"
fill="#000000" stroke="none">
<path d="M12675 50609 c-82 -12 -172 -44 -239 -84 -31 -18 -119 -94 -197 -167
-115 -109 -920 -931 -1957 -2001 -196 -201 -223 -240 -241 -348 -6 -32 -11
-1030 -13 -2446 l-4 -2393 1050 0 1049 0 -9 1678 c-12 2276 -15 2004 22 2082
17 36 49 86 70 111 21 25 232 225 469 445 236 219 520 485 631 590 121 115
219 199 246 212 l44 22 14332 0 c9854 0 14346 -3 14380 -10 26 -6 64 -21 84
-33 42 -25 1179 -1180 1217 -1234 13 -21 34 -60 45 -88 21 -50 21 -53 24
-1912 l2 -1863 1084 0 1083 0 9 2343 c5 1288 8 2374 8 2412 -2 85 -32 180 -80
252 -32 49 -461 532 -713 802 -64 69 -449 458 -857 866 -665 667 -746 744
-789 758 -45 16 -1149 17 -15369 16 -8621 -1 -15347 -5 -15381 -10z"/>
<path d="M3325 46685 c-424 -93 -713 -492 -664 -915 33 -286 204 -536 452
-660 504 -253 1099 33 1211 582 92 449 -206 900 -656 992 -92 19 -259 19 -343
1z m317 -497 c79 -36 142 -98 180 -177 29 -58 33 -75 33 -151 0 -75 -4 -93
-31 -150 -37 -78 -99 -141 -174 -178 -48 -24 -67 -27 -150 -27 -82 0 -103 4
-152 27 -117 55 -196 170 -206 298 -6 90 12 158 59 230 96 143 287 198 441
128z"/>
<path d="M51861 46690 c-187 -39 -339 -125 -465 -262 -233 -251 -290 -608
-146 -925 41 -90 104 -176 193 -259 160 -153 350 -227 577 -226 238 1 444 92
612 270 420 446 227 1181 -362 1374 -84 27 -111 31 -230 34 -74 2 -155 -1
-179 -6z m303 -504 c76 -37 128 -86 167 -158 33 -60 34 -67 34 -168 0 -96 -2
-110 -29 -163 -35 -68 -93 -124 -168 -164 -48 -25 -63 -28 -153 -28 -93 0
-104 2 -160 32 -34 17 -80 52 -104 78 -183 198 -92 518 168 592 69 20 182 10
245 -21z"/>
<path d="M7365 45980 c-276 -44 -516 -218 -638 -464 -64 -129 -82 -211 -82
-371 0 -148 11 -208 59 -327 38 -92 85 -164 165 -250 173 -185 402 -278 656
-265 136 7 202 25 330 87 224 110 382 304 446 550 31 116 31 291 0 405 -83
312 -323 547 -632 620 -83 19 -228 26 -304 15z m283 -519 c72 -39 119 -88 159
-163 25 -48 28 -63 28 -153 0 -88 -3 -106 -27 -155 -73 -149 -237 -232 -394
-200 -118 24 -211 98 -262 208 -36 77 -38 202 -4 277 34 74 67 118 118 155 79
56 127 71 229 67 80 -3 97 -7 153 -36z"/>
<path d="M48000 45979 c-349 -53 -621 -306 -707 -655 -25 -103 -22 -277 6
-384 64 -246 221 -440 446 -550 128 -62 194 -80 330 -87 484 -24 885 358 885
844 0 445 -355 815 -804 837 -50 3 -120 0 -156 -5z m272 -512 c75 -37 134 -98
172 -177 27 -57 31 -75 30 -150 0 -70 -5 -95 -26 -142 -51 -110 -144 -184
-262 -208 -157 -32 -321 51 -393 198 -25 51 -28 68 -28 157 0 90 3 105 28 152
73 139 183 205 337 201 69 -3 95 -8 142 -31z"/>
<path d="M14514 45763 c68 -191 5940 -16060 5944 -16065 4 -3 707 1888 1562
4204 1423 3854 1556 4207 1566 4181 6 -15 706 -1907 1554 -4203 849 -2296
1546 -4178 1549 -4182 4 -5 6190 15887 6257 16075 6 16 -74 17 -1583 17
l-1589 0 -1509 -4217 c-829 -2320 -1511 -4225 -1516 -4233 -6 -12 -10 -10 -17
10 -5 14 -707 1895 -1560 4180 -853 2285 -1560 4182 -1573 4215 l-22 60 -17
-40 c-9 -22 -711 -1936 -1560 -4252 -849 -2317 -1547 -4207 -1551 -4200 -4 6
-680 1911 -1502 4232 -823 2321 -1499 4228 -1502 4238 -7 16 -86 17 -1476 17
l-1468 0 13 -37z"/>
<path d="M35515 45776 c-111 -35 -199 -115 -260 -236 -69 -136 -1200 -2707
-1252 -2844 -18 -49 -31 -91 -29 -94 7 -7 264 67 371 108 254 95 352 158 554
354 134 129 159 149 243 190 111 55 246 91 423 112 151 19 319 20 1671 17
l932 -3 7 -506 c9 -579 5 -637 -49 -751 -33 -68 -65 -103 -485 -530 -248 -252
-818 -822 -1268 -1267 -3062 -3030 -4404 -4370 -5364 -5351 -182 -186 -208
-217 -228 -268 l-21 -59 -6 -2464 -6 -2464 5034 2 5033 3 3 1308 2 1307 -142
3 c-79 1 -1686 2 -3573 2 -3299 0 -3432 1 -3477 18 -57 22 -113 82 -127 134
-11 42 -36 883 -30 1003 3 60 11 89 37 142 34 69 88 123 1172 1173 350 339
862 826 1840 1750 732 692 781 739 1791 1735 1079 1064 1480 1449 1975 1897
110 99 231 214 268 254 121 133 195 262 239 418 l22 76 3 2423 2 2422 -2632
-1 c-2098 0 -2641 -3 -2673 -13z"/>
<path d="M770 41620 l0 -340 5675 0 5675 0 0 340 0 340 -5675 0 -5675 0 0
-340z"/>
<path d="M43680 41625 l0 -335 5585 0 5585 0 0 335 0 335 -5585 0 -5585 0 0
-335z"/>
<path d="M50762 38728 l3 -423 425 0 425 0 3 423 2 422 -430 0 -430 0 2 -422z"/>
<path d="M4840 38695 l0 -435 430 0 430 0 0 435 0 435 -430 0 -430 0 0 -435z"/>
<path d="M6675 39087 c-3 -6 -4 -201 -3 -432 l3 -420 3838 -3 3837 -2 0 435 0
435 -3835 0 c-3060 0 -3837 -3 -3840 -13z"/>
<path d="M41172 38658 l3 -423 4310 0 4310 0 3 423 2 422 -4315 0 -4315 0 2
-422z"/>
<path d="M3907 36833 c-4 -3 -7 -199 -7 -435 l0 -428 5230 0 5230 0 -2 433 -3
432 -5221 3 c-2871 1 -5224 -1 -5227 -5z"/>
<path d="M41172 36398 l3 -423 5960 0 5960 0 3 423 2 422 -5965 0 -5965 0 2
-422z"/>
<path d="M8690 34100 l0 -570 4166 0 c3528 0 4165 2 4161 14 -35 90 -440 1093
-448 1107 -10 19 -88 19 -3944 19 l-3935 0 0 -570z"/>
<path d="M41172 34093 l3 -568 3548 -3 3547 -2 0 570 0 570 -3550 0 -3550 0 2
-567z"/>
<path d="M14360 31580 c0 -597 5 -2390 11 -3985 9 -2502 12 -2903 25 -2922
l14 -23 12480 0 c6864 0 12480 2 12480 5 0 2 -105 168 -233 367 -129 200 -421
658 -649 1018 -228 360 -487 768 -574 905 l-159 250 -7110 -3 c-3911 -2 -8578
0 -10372 4 l-3263 6 -2 2732 -3 2731 -1322 0 -1323 0 0 -1085z"/>
<path d="M8330 31675 l0 -435 1895 0 1895 0 0 435 0 435 -1895 0 -1895 0 0
-435z"/>
<path d="M43680 31665 l0 -425 4520 0 4520 0 0 425 0 425 -4520 0 -4520 0 0
-425z"/>
<path d="M1830 31640 l0 -430 480 0 480 0 0 430 0 430 -480 0 -480 0 0 -430z"/>
<path d="M3760 31640 l0 -430 1790 0 1790 0 0 430 0 430 -1790 0 -1790 0 0
-430z"/>
<path d="M53680 31605 l0 -425 460 0 460 0 0 425 0 425 -460 0 -460 0 0 -425z"/>
<path d="M50700 29505 l0 -425 460 0 460 0 0 425 0 425 -460 0 -460 0 0 -425z"/>
<path d="M3760 29500 l0 -390 4180 0 4180 0 0 390 0 390 -4180 0 -4180 0 0
-390z"/>
<path d="M43680 29485 l0 -405 3020 0 3020 0 -2 403 -3 402 -3017 3 -3018 2 0
-405z"/>
<path d="M47730 27005 l0 -345 4078 2 4077 3 0 340 0 340 -4077 3 -4078 2 0
-345z"/>
<path d="M0 27005 l0 -335 4080 0 4080 0 0 335 0 335 -4080 0 -4080 0 0 -335z"/>
<path d="M10030 24293 l0 -3047 123 -126 c67 -69 194 -201 282 -295 195 -208
1023 -1062 1387 -1430 165 -168 287 -282 320 -302 111 -67 -48 -63 2290 -63
l2118 0 0 1115 0 1115 -1593 2 -1593 3 -75 37 c-68 34 -117 78 -582 525 -465
446 -511 493 -540 553 l-32 65 -3 2447 -2 2448 -1050 0 -1050 0 0 -3047z"/>
<path d="M39180 27194 c0 -6 1608 -2533 1621 -2548 5 -6 9 566 9 1272 l0 1282
-815 0 c-448 0 -815 -3 -815 -6z"/>
<path d="M43678 25698 c-2 -827 -2 -1890 0 -2363 2 -527 -1 -886 -7 -927 -18
-127 -41 -161 -259 -381 -108 -109 -262 -258 -342 -330 -80 -72 -201 -186
-270 -253 -94 -92 -141 -130 -185 -151 l-60 -28 -880 0 -880 0 -3 -1103 -2
-1102 1407 2 1408 3 53 22 c74 30 133 77 338 269 99 92 332 305 519 474 443
400 475 430 908 856 409 404 419 416 435 560 4 38 6 1393 4 3012 l-4 2942
-1089 0 -1089 0 -2 -1502z"/>
<path d="M7315 24394 c-351 -79 -606 -346 -666 -698 -16 -94 -6 -262 21 -355
98 -343 395 -585 756 -616 150 -13 345 34 486 116 79 46 192 149 250 226 112
152 179 381 163 558 -33 365 -269 652 -620 756 -96 28 -293 35 -390 13z m317
-501 c68 -30 149 -111 181 -180 18 -39 22 -66 22 -148 0 -95 -2 -103 -34 -163
-39 -71 -98 -129 -169 -163 -40 -20 -63 -24 -147 -24 -87 0 -107 3 -155 26
-75 35 -136 98 -173 177 -28 59 -32 77 -32 152 0 71 5 94 27 142 29 62 105
146 156 172 99 51 223 55 324 9z"/>
<path d="M47977 24400 c-269 -46 -515 -235 -628 -485 -88 -195 -98 -408 -28
-619 43 -130 98 -217 203 -322 106 -106 192 -160 322 -203 226 -76 437 -61
649 44 381 189 560 638 414 1039 -122 334 -445 560 -796 555 -48 -1 -109 -5
-136 -9z m263 -495 c95 -32 195 -135 222 -228 7 -23 12 -76 12 -117 0 -63 -5
-85 -31 -142 -37 -79 -94 -137 -171 -175 -51 -25 -68 -28 -157 -28 -84 0 -107
4 -147 24 -71 34 -130 92 -169 163 -32 60 -34 68 -34 163 0 119 18 166 92 246
100 107 243 142 383 94z"/>
<path d="M3325 23725 c-427 -98 -713 -492 -664 -915 50 -436 407 -754 844
-752 227 1 429 86 590 247 158 158 245 369 245 595 0 238 -92 446 -273 616
-69 66 -107 92 -189 132 -57 28 -130 58 -163 67 -83 23 -311 29 -390 10z m317
-497 c79 -36 142 -98 180 -177 29 -58 33 -75 33 -151 0 -75 -4 -93 -31 -150
-37 -78 -99 -141 -174 -178 -48 -24 -67 -27 -150 -27 -82 0 -103 4 -152 27
-117 55 -196 170 -206 298 -6 90 12 158 59 230 96 143 287 198 441 128z"/>
<path d="M51861 23730 c-187 -39 -339 -125 -465 -262 -233 -251 -290 -608
-146 -925 41 -90 104 -176 193 -259 160 -153 350 -227 577 -226 238 1 444 92
612 270 420 446 227 1181 -362 1374 -84 27 -111 31 -230 34 -74 2 -155 -1
-179 -6z m303 -504 c76 -37 128 -86 167 -158 33 -60 34 -67 34 -168 0 -96 -2
-110 -29 -163 -35 -68 -93 -124 -168 -164 -48 -25 -63 -28 -153 -28 -93 0
-104 2 -160 32 -34 17 -80 52 -104 78 -183 198 -92 518 168 592 69 20 182 10
245 -21z"/>
<path d="M28356 21710 c-663 -121 -1171 -630 -1292 -1296 -27 -149 -25 -404 5
-553 98 -497 407 -909 846 -1126 279 -138 551 -192 840 -166 709 62 1274 563
1427 1265 19 87 22 132 22 316 0 201 -1 223 -28 335 -74 318 -205 555 -430
781 -227 226 -481 365 -798 435 -140 31 -444 36 -592 9z"/>
<path d="M17620 20145 l0 -1115 445 0 445 0 0 1115 0 1115 -445 0 -445 0 0
-1115z"/>
<path d="M19630 20145 l0 -1115 443 2 442 3 3 1113 2 1112 -445 0 -445 0 0
-1115z"/>
<path d="M21700 20145 l0 -1115 445 0 445 0 0 1115 0 1115 -445 0 -445 0 0
-1115z"/>
<path d="M34642 20148 l3 -1113 443 -3 442 -2 0 1115 0 1115 -445 0 -445 0 2
-1112z"/>
<path d="M36650 20145 l0 -1115 445 0 445 0 0 1115 0 1115 -445 0 -445 0 0
-1115z"/>
<path d="M38730 20145 l0 -1115 440 0 440 0 0 1115 0 1115 -440 0 -440 0 0
-1115z"/>
<path d="M44985 17085 c-278 -60 -486 -303 -503 -586 -14 -247 129 -492 349
-597 111 -53 174 -67 294 -66 81 1 115 6 180 28 267 91 436 322 436 597 0 113
-12 167 -57 268 -121 264 -419 416 -699 356z m221 -126 c202 -37 378 -222 403
-424 33 -278 -154 -528 -426 -567 -300 -43 -573 194 -573 497 0 190 113 370
282 450 112 53 198 65 314 44z"/>
<path d="M45000 16793 c-240 -84 -313 -387 -137 -566 71 -72 131 -99 232 -105
104 -5 173 19 250 89 81 74 109 140 110 254 0 79 -4 97 -28 147 -36 73 -119
150 -192 177 -67 25 -170 27 -235 4z m208 -132 c167 -86 161 -324 -10 -395
-158 -67 -328 68 -301 237 9 56 60 127 112 154 57 30 146 31 199 4z"/>
<path d="M46808 14764 c-5 -4 -8 -657 -8 -1451 l0 -1443 -1684 0 -1684 0 -7
1226 c-4 674 -4 1324 0 1445 l7 219 -855 0 -855 0 -7 -742 c-3 -409 -4 -2145
-1 -3858 l5 -3115 853 -3 854 -2 -1 517 c0 285 1 927 3 1427 l2 909 1668 -8
c917 -4 1668 -8 1670 -10 2 -2 4 -639 5 -1416 l2 -1414 868 -3 867 -2 -2 3862
-3 3863 -845 3 c-465 2 -848 0 -852 -4z"/>
<path d="M7380 13843 l0 -916 1640 6 1640 7 0 -2945 0 -2945 850 0 850 0 0
2940 0 2940 1260 0 1260 0 0 915 0 915 -3750 0 -3750 0 0 -917z"/>
<path d="M19188 14753 c-2 -5 -1 -1740 2 -3858 l5 -3850 3332 -3 c2837 -2
3334 0 3345 12 12 12 14 149 11 882 -3 478 -6 875 -8 881 -4 10 -506 13 -2447
15 l-2443 3 -14 60 c-10 45 -14 152 -15 425 -1 352 6 461 35 608 l10 52 1779
0 c1612 0 1778 1 1784 16 6 14 9 1852 4 1856 -2 1 -806 4 -1788 7 l-1785 6 -8
45 c-4 25 -10 176 -13 335 -6 285 2 471 27 622 l11 68 2417 3 c1329 1 2424 5
2434 8 16 5 17 57 17 903 l0 898 -202 6 c-283 10 -6486 9 -6490 0z"/>
<path d="M31685 14743 c-370 -32 -716 -150 -975 -332 -96 -67 -277 -253 -347
-356 -198 -293 -301 -662 -333 -1190 -6 -110 -13 -920 -16 -2070 -7 -2105 -10
-1993 61 -2270 42 -163 95 -302 187 -493 89 -183 187 -329 302 -449 305 -319
677 -479 1241 -534 138 -13 1214 -13 2750 1 1023 9 1066 11 1319 60 281 55
569 170 779 312 128 86 314 274 404 408 181 269 298 544 357 842 36 177 46
292 46 509 l0 192 -46 -7 c-26 -3 -435 -6 -909 -6 l-862 0 -27 -97 c-15 -54
-42 -125 -59 -158 -66 -122 -192 -212 -359 -254 -146 -37 -297 -41 -1703 -41
-1495 0 -1420 -3 -1530 60 -111 64 -203 197 -226 326 -14 83 -13 3119 1 3209
23 143 71 238 174 340 81 80 172 132 291 167 l80 23 1345 -3 c740 -2 1404 -7
1476 -11 116 -7 139 -12 195 -38 121 -56 208 -173 250 -334 l23 -87 946 -4
c520 -3 948 -2 951 1 8 8 -7 342 -21 481 -14 134 -37 239 -100 457 -126 437
-283 723 -518 945 -186 176 -407 285 -678 338 -273 53 -257 52 -1679 60 -1362
8 -2719 9 -2790 3z"/>
<path d="M29717 3405 c-87 -15 -220 -56 -282 -88 -130 -65 -311 -219 -419
-356 l-46 -59 216 -162 216 -161 122 119 c137 133 206 175 319 195 184 31 337
-52 367 -200 28 -132 -17 -242 -154 -378 -97 -96 -124 -117 -716 -567 l-385
-293 -3 -228 -2 -227 960 0 960 0 0 250 0 250 -512 2 -512 3 139 99 c256 182
479 353 561 429 210 197 294 376 294 630 0 206 -56 359 -178 488 -113 121
-228 187 -409 235 -85 23 -123 27 -278 30 -123 2 -205 -1 -258 -11z"/>
<path d="M24220 3405 c-8 -2 -49 -9 -90 -15 -246 -40 -497 -168 -674 -345
-170 -170 -279 -380 -321 -619 -19 -112 -19 -288 0 -399 84 -485 426 -828 935
-938 91 -20 133 -23 315 -23 180 0 225 3 315 23 224 48 445 143 618 267 l92
67 0 503 0 504 -540 0 -540 0 0 -240 0 -240 260 0 260 0 0 -135 0 -136 -72
-34 c-113 -53 -177 -67 -335 -72 -111 -4 -159 -1 -218 12 -188 41 -354 170
-433 335 -47 98 -72 207 -72 315 0 313 219 588 520 651 141 30 353 2 494 -65
34 -17 101 -58 149 -92 47 -33 88 -61 92 -60 10 1 355 399 355 410 0 20 -174
140 -275 190 -205 100 -344 131 -620 136 -110 2 -207 2 -215 0z"/>
<path d="M7760 2236 l0 -1136 638 0 c671 0 742 4 902 46 334 88 509 294 510
599 0 239 -99 398 -321 515 l-70 37 41 28 c140 97 220 257 220 440 0 163 -46
274 -164 390 -94 94 -182 141 -335 183 l-96 26 -662 4 -663 3 0 -1135z m1228
615 c67 -30 109 -77 117 -134 14 -89 -27 -161 -111 -198 -66 -30 -163 -39
-426 -39 l-248 0 0 201 0 201 308 -4 c298 -3 309 -4 360 -27z m54 -852 c144
-31 214 -117 193 -240 -8 -48 -52 -102 -104 -129 -66 -33 -145 -40 -483 -40
l-328 0 0 210 0 210 335 0 c209 0 354 -4 387 -11z"/>
<path d="M10273 2633 c3 -714 4 -741 25 -835 110 -486 457 -738 1017 -738 355
0 613 95 801 293 114 120 180 246 227 437 20 82 21 115 24 833 l4 747 -291 0
-290 0 0 -702 c0 -585 -3 -714 -15 -766 -44 -188 -169 -297 -369 -324 -120
-16 -226 -1 -323 47 -84 41 -132 92 -175 182 -55 115 -57 154 -58 891 l0 672
-291 0 -290 0 4 -737z"/>
<path d="M13000 2235 l0 -1135 290 0 290 0 0 1135 0 1135 -290 0 -290 0 0
-1135z"/>
<path d="M14240 2235 l0 -1135 870 0 870 0 0 255 0 255 -580 0 -580 0 0 880 0
880 -290 0 -290 0 0 -1135z"/>
<path d="M16440 2236 l0 -1136 538 0 c581 0 648 5 825 55 349 101 635 338 764
636 65 152 86 253 87 434 0 97 -4 184 -12 220 -101 468 -429 781 -940 897 -92
21 -124 22 -679 25 l-583 4 0 -1135z m1160 605 c242 -72 403 -245 446 -481 16
-90 13 -212 -7 -299 -37 -152 -157 -304 -296 -374 -138 -70 -188 -79 -470 -84
l-253 -5 0 637 0 637 253 -5 c221 -4 261 -7 327 -26z"/>
<path d="M19210 2235 l0 -1135 290 0 290 0 0 1135 0 1135 -290 0 -290 0 0
-1135z"/>
<path d="M20450 2235 l0 -1135 285 0 285 0 2 669 3 668 539 -668 539 -669 244
0 243 0 0 1135 0 1135 -285 0 -285 0 -2 -648 -3 -648 -520 645 -520 646 -263
3 -262 2 0 -1135z"/>
<path d="M34150 2235 l0 -1135 295 0 295 0 0 430 0 430 570 0 570 0 0 250 0
250 -570 0 -570 0 0 205 0 205 645 0 645 0 0 250 0 250 -940 0 -940 0 0 -1135z"/>
<path d="M36490 2666 c0 -721 3 -785 41 -935 26 -102 106 -262 170 -339 179
-216 474 -332 848 -332 169 0 317 22 451 66 156 52 238 102 356 219 90 90 106
111 152 205 61 122 97 253 112 399 6 60 10 379 10 762 l0 659 -295 0 -294 0
-3 -717 c-3 -702 -4 -719 -25 -780 -59 -175 -177 -270 -367 -295 -226 -30
-419 51 -505 212 -60 112 -61 125 -61 888 l0 692 -295 0 -295 0 0 -704z"/>
<path d="M39060 3115 l0 -255 365 0 365 0 0 -880 0 -880 295 0 295 0 0 880 0
880 360 0 360 0 0 255 0 255 -1020 0 -1020 0 0 -255z"/>
<path d="M41550 2666 c0 -721 3 -785 41 -935 26 -102 106 -262 170 -339 179
-216 474 -332 848 -332 169 0 317 22 451 66 156 52 238 102 356 219 90 90 106
111 152 205 61 122 97 253 112 399 6 60 10 379 10 762 l0 659 -295 0 -294 0
-3 -717 c-3 -702 -4 -719 -25 -780 -59 -175 -177 -270 -367 -295 -226 -30
-419 51 -505 212 -60 112 -61 125 -61 888 l0 692 -295 0 -295 0 0 -704z"/>
<path d="M44290 2235 l0 -1135 295 0 295 0 0 355 0 355 183 0 182 -1 253 -354
254 -355 344 0 345 0 -30 43 c-16 23 -149 204 -294 402 l-265 360 47 21 c202
90 362 271 417 469 40 146 26 376 -30 516 -97 238 -342 402 -671 449 -40 5
-336 10 -697 10 l-628 0 0 -1135z m1255 612 c80 -26 138 -70 171 -129 25 -46
29 -63 28 -133 0 -93 -20 -142 -80 -195 -88 -77 -163 -90 -516 -90 l-268 0 0
286 0 286 308 -4 c250 -4 316 -8 357 -21z"/>
<path d="M46900 2235 l0 -1135 940 0 940 0 -2 247 -3 248 -647 3 -648 2 0 200
0 200 565 0 565 0 0 245 0 245 -565 0 -565 0 0 190 0 190 638 2 637 3 3 248 2
247 -930 0 -930 0 0 -1135z"/>
<path d="M50820 2255 l0 -285 1880 0 1880 0 0 285 0 285 -1880 0 -1880 0 0
-285z"/>
<path d="M1287 2453 c-4 -3 -7 -134 -7 -290 l0 -283 1885 0 1885 0 0 290 0
290 -1878 0 c-1033 0 -1882 -3 -1885 -7z"/>
</g>
</svg>
